HIERARCHY
ROOT Hips
{
	OFFSET -3.958830 18.904000 13.208200
	CHANNELS 6 Xposition Yposition Zposition Zrotation Yrotation Xrotation 
	JOINT LHipJoint
	{
		OFFSET 0.000000 0.000000 0.000000
		CHANNELS 3 Zrotation Yrotation Xrotation
		JOINT LeftUpLeg
		{
			OFFSET 1.800000 -1.400000 0.085000
			CHANNELS 3 Zrotation Yrotation Xrotation
			JOINT LeftLeg
			{
				OFFSET 2.215000 -6.000000 0.000000
				CHANNELS 3 Zrotation Yrotation Xrotation
				JOINT LeftFoot
				{
					OFFSET 2.500000 -6.900000 0.000000
					CHANNELS 3 Zrotation Yrotation Xrotation
					JOINT LeftToeBase
					{
						OFFSET 0.200000 -0.500000 1.950000
						CHANNELS 3 Zrotation Yrotation Xrotation
						End Site
						{
							OFFSET 0.000000 0.000000 0.000000
						}
					}
				}
			}
		}
	}
	JOINT RHipJoint
	{
		OFFSET 0.000000 0.000000 0.000000
		CHANNELS 3 Zrotation Yrotation Xrotation
		JOINT RightUpLeg
		{
			OFFSET -1.800000 -1.400000 0.085000
			CHANNELS 3 Zrotation Yrotation Xrotation
			JOINT RightLeg
			{
				OFFSET -2.215000 -6.000000 0.000000
				CHANNELS 3 Zrotation Yrotation Xrotation
				JOINT RightFoot
				{
					OFFSET -2.500000 -6.900000 0.000000
					CHANNELS 3 Zrotation Yrotation Xrotation
					JOINT RightToeBase
					{
						OFFSET -0.200000 -0.500000 1.950000
						CHANNELS 3 Zrotation Yrotation Xrotation
						End Site
						{
							OFFSET 0.000000 0.000000 0.000000
						}
					}
				}
			}
		}
	}
	JOINT LowerBack
	{
		OFFSET 0.000000 0.000000 0.000000
		CHANNELS 3 Zrotation Yrotation Xrotation
		JOINT Spine
		{
			OFFSET -0.087000 1.940000 -0.288900
			CHANNELS 3 Zrotation Yrotation Xrotation
			JOINT Spine1
			{
				OFFSET 0.000000 1.950000 0.060000
				CHANNELS 3 Zrotation Yrotation Xrotation
				JOINT Neck
				{
					OFFSET 0.000000 0.000000 0.000000
					CHANNELS 3 Zrotation Yrotation Xrotation
					JOINT Neck1
					{
						OFFSET 0.000000 1.600000 0.340000
						CHANNELS 3 Zrotation Yrotation Xrotation
						JOINT Head
						{
							OFFSET 0.000000 1.667000 -0.240000
							CHANNELS 3 Zrotation Yrotation Xrotation
							End Site
							{
								OFFSET 0.000000 0.000000 0.000000
							}
						}
					}
				}
				JOINT LeftShoulder
				{
					OFFSET 0.000000 0.000000 0.000000
					CHANNELS 3 Zrotation Yrotation Xrotation
					JOINT LeftArm
					{
						OFFSET 2.700000 1.550000 -0.730000
						CHANNELS 3 Zrotation Yrotation Xrotation
						JOINT LeftForeArm
						{
							OFFSET 5.450000 0.000000 0.000000
							CHANNELS 3 Zrotation Yrotation Xrotation
							JOINT LeftHand
							{
								OFFSET 3.450000 0.000000 0.000000
								CHANNELS 3 Zrotation Yrotation Xrotation
								JOINT LeftHandIndex1
								{
									OFFSET 0.750000 0.000000 0.000000
									CHANNELS 3 Zrotation Yrotation Xrotation
									End Site
									{
										OFFSET 0.000000 0.000000 0.000000
									}
								}
							}
						}
					}
				}
				JOINT RightShoulder
				{
					OFFSET 0.000000 0.000000 0.000000
					CHANNELS 3 Zrotation Yrotation Xrotation
					JOINT RightArm
					{
						OFFSET -2.700000 1.550000 -0.730000
						CHANNELS 3 Zrotation Yrotation Xrotation
						JOINT RightForeArm
						{
							OFFSET -5.450000 0.000000 0.000000
							CHANNELS 3 Zrotation Yrotation Xrotation
							JOINT RightHand
							{
								OFFSET -3.450000 0.000000 0.000000
								CHANNELS 3 Zrotation Yrotation Xrotation
								JOINT RightHandIndex1
								{
									OFFSET -0.750000 0.000000 0.000000
									CHANNELS 3 Zrotation Yrotation Xrotation
									End Site
									{
										OFFSET 0.000000 0.000000 0.000000
									}
								}
							}
						}
					}
				}
			}
		}
	}
}
MOTION
Frames: 8
Frame Time: 0.016667
-0.876560 16.986440 -1.742290 -4.880432 -10.052019 -1.594847 -15.240047 12.699438 3.302645 4.930267 -4.095701 -27.905443 -2.962005 7.819480 33.308532 0.011346 5.410141 2.422251 0.245490 0.237390 0.141840 18.216909 -11.044534 3.101257 2.421125 -1.024897 -2.459882 11.206840 -6.621788 14.014834 -0.469099 -4.252978 2.909510 0.174580 0.035890 -0.002590 -3.208664 -0.606187 -7.632069 -2.068085 9.012421 15.514659 -5.253221 10.870202 4.024596 1.421568 1.274239 -5.952977 -2.756555 3.751468 58.656169 9.095350 1.863040 0.353810 -26.061258 -2.052169 -4.183392 -35.418487 -17.978484 -6.100565 27.132262 -50.245090 -11.541575 -3.525680 2.765276 0.212650 -0.024000 0.070090 0.063470 22.622202 2.738757 5.311646 48.841513 -6.194285 -10.091455 46.669837 28.297004 6.341345 2.433534 -1.597850 -0.065270 0.135370 -0.039670 -0.068580 
-0.884240 16.990920 -1.717190 -4.986215 -9.972980 -1.515117 -15.228718 12.727163 3.229849 5.221255 -3.852607 -27.293351 -3.119129 7.807601 32.617946 0.000978 5.336544 2.459887 0.223210 0.214770 0.122240 18.225987 -11.066042 3.116766 2.452759 -1.087601 -2.284803 11.184155 -6.598258 13.759339 -0.462623 -4.263469 2.915831 0.163450 0.056680 -0.005370 -3.235409 -0.583807 -7.593376 -1.997822 8.956495 14.821828 -5.582349 10.771408 4.032396 1.467893 1.284278 -6.027683 -2.598821 3.901322 57.654043 9.157780 1.953520 0.579230 -25.731144 -2.100750 -4.142680 -34.736716 -17.744248 -6.051928 26.069048 -49.775726 -10.899388 -3.546255 2.772744 0.204240 -0.010910 0.055500 0.063800 22.208959 2.614239 5.518488 49.156065 -6.841452 -10.234605 47.807582 28.609766 6.637744 2.428896 -1.603773 -0.074680 0.141910 -0.028830 -0.064470 
-0.894910 17.003340 -1.700510 -4.949926 -9.754613 -1.510249 -15.217547 12.751251 3.166272 5.399514 -3.668108 -26.662042 -3.169826 7.766638 32.064168 -0.007900 5.269326 2.496690 0.210000 0.196630 0.116940 18.232203 -11.100774 3.133095 2.483350 -1.145345 -2.148109 10.987790 -6.528265 13.498051 -0.457450 -4.254217 2.925789 0.153690 0.065740 -0.006230 -3.257309 -0.533017 -7.567006 -2.339578 8.805368 14.374404 -6.309419 10.556073 3.815071 1.601954 1.490008 -6.069662 -1.919884 3.499869 55.887576 8.983460 1.740430 0.211080 -25.552452 -2.348531 -4.150997 -32.797617 -17.149279 -6.225861 26.190318 -49.583820 -10.692005 -3.555391 2.777660 0.200340 -0.005360 0.047100 0.062530 21.795966 2.515464 5.827635 49.275996 -7.766452 -10.366386 50.825032 29.194876 7.406675 2.424618 -1.630571 -0.080280 0.146230 -0.024090 -0.064390 
-0.899700 17.008640 -1.695530 -4.916391 -9.732435 -1.286754 -15.194142 12.754801 3.116776 5.418937 -3.538697 -26.281888 -3.027436 7.657864 31.639928 -0.025332 5.199125 2.531596 0.201670 0.180860 0.107990 18.255040 -11.137686 3.149261 2.717528 -1.196654 -2.216882 10.395250 -6.302993 13.010224 -0.438383 -4.188858 2.952387 0.148730 0.079060 -0.002600 -3.321127 -0.451047 -7.537970 -2.343605 8.612357 13.875717 -7.268194 10.331056 3.715452 1.698634 1.393438 -6.095405 -1.813636 3.463696 53.846744 9.020650 1.478860 -0.276730 -25.050509 -2.332684 -4.168367 -31.413135 -16.655439 -6.331595 27.150074 -49.359773 -10.885561 -3.564328 2.782642 0.197700 0.001140 0.035000 0.063250 21.050340 2.362473 6.068115 49.387085 -8.305114 -10.257190 54.400989 29.833812 8.448178 2.417346 -1.669037 -0.086210 0.148400 -0.016670 -0.062990 
-0.904850 17.018080 -1.681760 -4.799524 -9.726036 -1.278570 -15.171739 12.751457 3.076994 5.438827 -3.441518 -25.757401 -3.235059 7.665965 31.209373 -0.036671 5.148572 2.549981 0.204970 0.177550 0.120890 18.276529 -11.156377 3.187367 2.873451 -1.386547 -1.747979 9.829367 -6.014111 11.745101 -0.440497 -4.119968 2.975003 0.145680 0.061930 -0.000870 -3.381083 -0.394745 -7.540369 -2.304831 8.434306 13.648129 -8.259868 10.176842 3.610327 1.838552 1.216534 -6.291147 -2.123692 3.417031 52.828458 8.512540 1.413990 -0.942460 -24.704034 -2.499423 -4.223641 -29.988301 -16.346716 -6.443748 28.372885 -48.714042 -11.091359 -3.560138 2.776577 0.208560 -0.009020 0.042930 0.056620 20.351492 2.459793 6.556589 49.430315 -9.360356 -10.353973 58.898069 30.640495 9.775771 2.411553 -1.709704 -0.085220 0.143030 -0.018550 -0.071460 
-0.918370 17.027960 -1.672860 -4.672941 -9.516645 -1.565656 -15.165894 12.800593 3.035965 5.534438 -3.309564 -25.105246 -3.291437 7.597955 30.681218 -0.057118 5.065109 2.575182 0.224950 0.192740 0.150340 18.271058 -11.190448 3.185327 2.787702 -1.366656 -1.658153 9.661551 -6.088486 12.321488 -0.464303 -4.135006 2.960084 0.150020 0.031810 0.001960 -3.377738 -0.403994 -7.527089 -2.604323 8.319046 13.767682 -8.785657 10.117015 3.818714 2.025937 1.444158 -6.625824 -1.662297 3.147440 52.362189 8.428700 1.486830 -2.077120 -23.967535 -2.942912 -4.140102 -29.360333 -16.537249 -6.437951 28.643164 -48.217306 -11.045309 -3.541054 2.766811 0.236120 -0.031170 0.068460 0.052130 19.264912 2.660598 7.048461 49.436171 -10.184038 -10.440389 63.221311 31.277470 11.069705 2.403053 -1.741556 -0.081530 0.140550 -0.030010 -0.084760 
-0.925890 17.027140 -1.670640 -4.806911 -9.573722 -1.565630 -15.144357 12.806976 3.023450 5.744709 -3.242668 -24.922919 -3.305358 7.583525 30.494778 -0.066351 5.041883 2.582499 0.214550 0.176720 0.155360 18.285211 -11.222221 3.201131 2.979581 -1.354010 -1.774399 9.423509 -6.055604 12.442588 -0.461673 -4.109541 2.969356 0.138790 0.023650 -0.001030 -3.424654 -0.344042 -7.548808 -2.348392 8.202025 13.892302 -9.551457 10.033355 3.800504 2.278409 1.705758 -7.021535 -1.045097 3.029835 52.132613 8.279050 1.738590 -2.188060 -23.431732 -3.479983 -3.975560 -28.538892 -16.398380 -6.547265 30.184853 -47.815850 -11.518101 -3.539440 2.743916 0.248340 -0.035160 0.072440 0.043050 18.217766 2.910515 7.535740 49.535045 -10.912640 -10.473510 66.693181 31.589095 12.067164 2.396543 -1.761930 -0.087930 0.138930 -0.026020 -0.094880 
-0.929590 17.023910 -1.678260 -4.772414 -9.623448 -1.582788 -15.146104 12.781265 3.037499 5.655245 -3.321884 -25.148141 -3.091016 7.568190 30.890761 -0.070308 5.080006 2.564815 0.214260 0.174550 0.168330 18.285301 -11.236715 3.200544 3.007990 -1.347218 -1.815845 9.309372 -6.036168 12.429128 -0.463294 -4.098697 2.969237 0.137550 0.015940 0.003830 -3.421353 -0.277429 -7.556280 -2.634479 8.364822 14.144723 -9.911091 10.194166 3.764116 2.526321 2.435587 -7.120088 0.608902 2.484361 51.520905 8.216000 2.048300 -2.716840 -23.300681 -3.987137 -4.002604 -27.422201 -16.635197 -6.563024 31.071666 -47.549718 -11.720603 -3.547239 2.732387 0.257030 -0.034290 0.079180 0.034070 17.619728 2.846331 7.752065 49.524956 -11.419372 -10.492514 69.112695 31.614676 12.647122 2.387473 -1.778537 -0.090270 0.135890 -0.025010 -0.104920 
